Coordinates
version=1
nRows=5
nColumns=63
inDegrees=yes

Units are S.I. units (second, meters, Newtons, ...)
If the header above contains a line with 'inDegrees', this indicates whether rotational values are in degrees (yes) or radians (no).

endheader
time	pelvis_tilt	pelvis_list	pelvis_rotation	pelvis_tx	pelvis_ty	pelvis_tz	hip_flexion_r	hip_adduction_r	hip_rotation_r	knee_angle_r	knee_angle_r_beta	ankle_angle_r	subtalar_angle_r	mtp_angle_r	hip_flexion_l	hip_adduction_l	hip_rotation_l	knee_angle_l	knee_angle_l_beta	ankle_angle_l	subtalar_angle_l	mtp_angle_l	L5_S1_Flex_Ext	L5_S1_Lat_Bending	L5_S1_axial_rotation	L4_L5_Flex_Ext	L4_L5_Lat_Bending	L4_L5_axial_rotation	L3_L4_Flex_Ext	L3_L4_Lat_Bending	L3_L4_axial_rotation	L2_L3_Flex_Ext	L2_L3_Lat_Bending	L2_L3_axial_rotation	L1_L2_Flex_Ext	L1_L2_Lat_Bending	L1_L2_axial_rotation	L1_T12_Flex_Ext	L1_T12_Lat_Bending	L1_T12_axial_rotation	Abs_r3	Abs_r2	Abs_r1	Abs_t1	Abs_t2	neck_flexion	neck_bending	neck_rotation	arm_flex_r	arm_add_r	arm_rot_r	elbow_flex_r	pro_sup_r	wrist_flex_r	wrist_dev_r	arm_flex_l	arm_add_l	arm_rot_l	elbow_flex_l	pro_sup_l	wrist_flex_l	wrist_dev_l
      3.28333333	     -2.14440735	     -5.91280171	     94.71608630	      0.31381881	      0.89502612	      0.70815526	     -1.89625175	     -0.30754307	     20.87922792	      0.45397308	      0.00792332	     20.06865411	    -12.33194707	      0.00000000	      0.02229787	     -0.55893155	     10.37633750	      3.58249636	      0.06252636	     23.00001390	    -12.80998540	      0.00000000	     -0.09220087	     -0.06663751	      1.95087110	     -0.17122624	     -0.08862789	      2.07280054	     -0.15147681	     -0.16202245	      2.07280054	     -0.10537638	     -0.16202245	      1.70701221	     -0.08561773	     -0.13588722	      1.58508277	     -0.05268358	     -0.10322151	      1.46315333	     -0.65858160	     -0.75381688	     10.85015980	      0.00000000	      0.00000000	     24.74879017	     -9.09350847	    -14.38960638	     16.55324462	     -4.57770742	    150.54684566	      0.27109113	      1.30544025	    -16.43152948	    -21.97355615	     20.56589309	     -9.06885802	    108.34960647	      6.47106006	      2.74297502	     -2.20425287	    -17.61061764
      3.30000000	     -2.54253928	     -6.03066282	     95.37188932	      0.31453177	      0.89582733	      0.70968543	     -1.77705475	     -0.60790929	     19.35589280	      0.47492246	      0.00828896	     20.39072195	    -11.36361201	      0.00000000	      0.43952280	     -0.26715884	      8.93944036	      3.92994591	      0.06859050	     23.99193393	     -9.63980703	      0.00000000	     -0.09589620	     -0.15009106	      1.76962646	     -0.17808882	     -0.19962111	      1.88022812	     -0.15754786	     -0.36493140	      1.88022812	     -0.10959976	     -0.36493140	      1.54842316	     -0.08904921	     -0.30606569	      1.43782150	     -0.05479509	     -0.23249105	      1.32721985	     -0.68497693	     -1.69786009	      9.84213150	      0.00000000	      0.00000000	     24.70795826	     -8.13270978	    -13.83259031	     18.30388944	     -2.75134342	    148.92610018	      0.24408454	      1.04795703	    -15.40943961	    -23.51052773	     21.28663877	     -9.02181896	    105.38296498	      8.35835576	      3.06257455	     -0.96074336	    -19.58295273
      3.31666667	     -1.01044837	     -6.83225587	     95.43146316	      0.30905130	      0.89010848	      0.70846175	     -0.92257026	      0.61421050	     19.41329647	      0.45245096	      0.00789676	     21.34347880	    -11.03267628	      0.00000000	      1.30429691	     -1.49333523	      9.06452284	      3.87126699	      0.06756636	     26.43545574	     -9.28532557	      0.00000000	     -0.02531506	      0.05950027	      2.26772285	     -0.04701259	      0.07913536	      2.40945553	     -0.04159011	      0.14466896	      2.40945553	     -0.02893258	      0.14466896	      1.98425749	     -0.02350756	      0.12133295	      1.84252482	     -0.01446502	      0.09216592	      1.70079214	     -0.18082293	      0.67307895	     12.61239418	      0.00000000	      0.00000000	     27.23196612	    -10.90126839	    -16.21750764	      3.29426596	    -12.48729784	     24.05243643	     44.78017120	     87.40474868	    -10.99850908	     -1.08364981	     13.85154825	     -8.90861567	     36.41413732	     25.80358838	     66.11380072	     -8.36639043	     -7.45760860
      3.33333333	     -1.00722716	     -7.21916639	     95.81222408	      0.30836164	      0.88956544	      0.70883036	     -0.52612399	      0.58992377	     18.84823554	      0.46136708	      0.00805237	     21.61462227	    -10.81540477	      0.00000000	      1.83441203	     -1.45206768	      8.88653301	      3.91388878	      0.06831025	     27.03901702	     -8.53206864	      0.00000000	      0.01030192	      0.03932627	      2.27270574	      0.01913170	      0.05230394	      2.41474985	      0.01692503	      0.09561790	      2.41474985	      0.01177407	      0.09561790	      1.98861752	      0.00956636	      0.08019413	      1.84657341	      0.00588652	      0.06091639	      1.70452931	      0.07358560	      0.44486665	     12.64010752	      0.00000000	      0.00000000	     27.54489320	    -10.75192450	    -16.38262573	      3.38989786	    -11.28279744	     22.19627425	     47.42304793	     85.81908263	    -11.20977904	     -1.32043667	     13.99108582	     -7.78758548	     37.57194095	     27.35124945	     65.78246321	     -7.41425023	     -7.17516584
      3.35000000	     -0.93329807	     -7.48919463	     95.95530193	      0.30770964	      0.88928862	      0.70927834	     -0.21608635	      0.62606914	     18.33926381	      0.47355680	      0.00826513	     21.88516094	    -10.29080564	      0.00000000	      2.32694155	     -1.55103481	      6.53675309	      4.17340382	      0.07283964	     28.16353059	     -5.18056564	      0.00000000	      0.02842956	      0.03773335	      2.33811811	      0.05279654	      0.05018536	      2.48425049	      0.04670693	      0.09174488	      2.48425049	      0.03249214	      0.09174488	      2.04585335	      0.02639969	      0.07694586	      1.89972096	      0.01624465	      0.05844897	      1.75358858	      0.20306951	      0.42684725	     13.00391150	      0.00000000	      0.00000000	     27.71909179	    -11.06852737	    -16.94738606	      3.62207323	    -10.26193202	     20.87834835	     49.61336845	     85.01987676	    -11.51886312	     -1.64304613	     15.06915777	     -6.97868308	     44.09913975	     28.39358086	     59.85221016	     -6.96027061	     -8.22207236
